<svg
  version="1.2"
  xmlns="http://www.w3.org/2000/svg"
  viewBox="0 0 800 600"
  penrose="0"
>
  <penrose>
    <croppedViewBox>
      320.7744187617516 83.92953859986201 223.0113501413707 378.1326447090171
    </croppedViewBox>
  </penrose>
  <g>
    <marker
      id="roger-GraphPipeline41417-`Arc_Render_Export`.arrow-endArrowId"
      markerUnits="strokeWidth"
      markerWidth="13.93"
      markerHeight="11.37"
      viewBox="0 0 9.95 8.12"
      refX="2.36"
      refY="4.06"
      orient="auto-start-reverse"
    >
      <path
        d="M9.95 4.06 0 8.12 2.36 4.06 0 0 9.95 4.06z"
        fill="#141a29"
        fill-opacity="0.85"
      ></path>
    </marker>
    <line
      x1="356.6564187602474"
      y1="437.06218330887907"
      x2="497.9986124452907"
      y2="136.0557138513547"
      stroke="#141a29"
      stroke-opacity="0.85"
      stroke-width="2.5"
      marker-end="url(#roger-GraphPipeline41417-`Arc_Render_Export`.arrow-endArrowId)"
    ></line>
    <title>`Arc_Render_Export`.arrow</title>
  </g>
  <g>
    <marker
      id="roger-GraphPipeline41417-`Arc_Parse_Render`.arrow-endArrowId"
      markerUnits="strokeWidth"
      markerWidth="13.93"
      markerHeight="11.37"
      viewBox="0 0 9.95 8.12"
      refX="2.36"
      refY="4.06"
      orient="auto-start-reverse"
    >
      <path
        d="M9.95 4.06 0 8.12 2.36 4.06 0 0 9.95 4.06z"
        fill="#141a29"
        fill-opacity="0.85"
      ></path>
    </marker>
    <line
      x1="487.1155331187639"
      y1="183.89750110473187"
      x2="368.825053639044"
      y2="413.4481292269021"
      stroke="#141a29"
      stroke-opacity="0.85"
      stroke-width="2.5"
      marker-end="url(#roger-GraphPipeline41417-`Arc_Parse_Render`.arrow-endArrowId)"
    ></line>
    <title>`Arc_Parse_Render`.arrow</title>
  </g>
  <circle
    fill="#eb472e"
    fill-opacity="0.9"
    cx="356.6564187602474"
    cy="437.06218330887907"
    stroke="#0a142e"
    stroke-opacity="1"
    stroke-width="2"
    r="24"
  >
    <title>`Render`.dot</title>
  </circle>
  <g
    transform="rotate(0, 356.6564187617516, 437.06218330851436)translate(320.7744187617516, 429.19718330851435)"
  >
    <title>`Render`.text</title>
    <svg
      style="font-size: 22px"
      xmlns="http://www.w3.org/2000/svg"
      width="71.764"
      height="15.729999999999999"
      role="img"
      focusable="false"
      viewBox="0 -694 3262 715"
    >
      <g
        stroke="none"
        fill="#ffffff"
        stroke-width="0"
        transform="scale(1,-1)"
        fill-opacity="1"
      >
        <g data-mml-node="math">
          <g data-mml-node="mi">
            <path
              data-c="1D445"
              d="M230 637Q203 637 198 638T193 649Q193 676 204 682Q206 683 378 683Q550 682 564 680Q620 672 658 652T712 606T733 563T739 529Q739 484 710 445T643 385T576 351T538 338L545 333Q612 295 612 223Q612 212 607 162T602 80V71Q602 53 603 43T614 25T640 16Q668 16 686 38T712 85Q717 99 720 102T735 105Q755 105 755 93Q755 75 731 36Q693 -21 641 -21H632Q571 -21 531 4T487 82Q487 109 502 166T517 239Q517 290 474 313Q459 320 449 321T378 323H309L277 193Q244 61 244 59Q244 55 245 54T252 50T269 48T302 46H333Q339 38 339 37T336 19Q332 6 326 0H311Q275 2 180 2Q146 2 117 2T71 2T50 1Q33 1 33 10Q33 12 36 24Q41 43 46 45Q50 46 61 46H67Q94 46 127 49Q141 52 146 61Q149 65 218 339T287 628Q287 635 230 637ZM630 554Q630 586 609 608T523 636Q521 636 500 636T462 637H440Q393 637 386 627Q385 624 352 494T319 361Q319 360 388 360Q466 361 492 367Q556 377 592 426Q608 449 619 486T630 554Z"
            ></path>
          </g>
          <g data-mml-node="mi" transform="translate(759,0)">
            <path
              data-c="1D452"
              d="M39 168Q39 225 58 272T107 350T174 402T244 433T307 442H310Q355 442 388 420T421 355Q421 265 310 237Q261 224 176 223Q139 223 138 221Q138 219 132 186T125 128Q125 81 146 54T209 26T302 45T394 111Q403 121 406 121Q410 121 419 112T429 98T420 82T390 55T344 24T281 -1T205 -11Q126 -11 83 42T39 168ZM373 353Q367 405 305 405Q272 405 244 391T199 357T170 316T154 280T149 261Q149 260 169 260Q282 260 327 284T373 353Z"
            ></path>
          </g>
          <g data-mml-node="mi" transform="translate(1225,0)">
            <path
              data-c="1D45B"
              d="M21 287Q22 293 24 303T36 341T56 388T89 425T135 442Q171 442 195 424T225 390T231 369Q231 367 232 367L243 378Q304 442 382 442Q436 442 469 415T503 336T465 179T427 52Q427 26 444 26Q450 26 453 27Q482 32 505 65T540 145Q542 153 560 153Q580 153 580 145Q580 144 576 130Q568 101 554 73T508 17T439 -10Q392 -10 371 17T350 73Q350 92 386 193T423 345Q423 404 379 404H374Q288 404 229 303L222 291L189 157Q156 26 151 16Q138 -11 108 -11Q95 -11 87 -5T76 7T74 17Q74 30 112 180T152 343Q153 348 153 366Q153 405 129 405Q91 405 66 305Q60 285 60 284Q58 278 41 278H27Q21 284 21 287Z"
            ></path>
          </g>
          <g data-mml-node="mi" transform="translate(1825,0)">
            <path
              data-c="1D451"
              d="M366 683Q367 683 438 688T511 694Q523 694 523 686Q523 679 450 384T375 83T374 68Q374 26 402 26Q411 27 422 35Q443 55 463 131Q469 151 473 152Q475 153 483 153H487H491Q506 153 506 145Q506 140 503 129Q490 79 473 48T445 8T417 -8Q409 -10 393 -10Q359 -10 336 5T306 36L300 51Q299 52 296 50Q294 48 292 46Q233 -10 172 -10Q117 -10 75 30T33 157Q33 205 53 255T101 341Q148 398 195 420T280 442Q336 442 364 400Q369 394 369 396Q370 400 396 505T424 616Q424 629 417 632T378 637H357Q351 643 351 645T353 664Q358 683 366 683ZM352 326Q329 405 277 405Q242 405 210 374T160 293Q131 214 119 129Q119 126 119 118T118 106Q118 61 136 44T179 26Q233 26 290 98L298 109L352 326Z"
            ></path>
          </g>
          <g data-mml-node="mi" transform="translate(2345,0)">
            <path
              data-c="1D452"
              d="M39 168Q39 225 58 272T107 350T174 402T244 433T307 442H310Q355 442 388 420T421 355Q421 265 310 237Q261 224 176 223Q139 223 138 221Q138 219 132 186T125 128Q125 81 146 54T209 26T302 45T394 111Q403 121 406 121Q410 121 419 112T429 98T420 82T390 55T344 24T281 -1T205 -11Q126 -11 83 42T39 168ZM373 353Q367 405 305 405Q272 405 244 391T199 357T170 316T154 280T149 261Q149 260 169 260Q282 260 327 284T373 353Z"
            ></path>
          </g>
          <g data-mml-node="mi" transform="translate(2811,0)">
            <path
              data-c="1D45F"
              d="M21 287Q22 290 23 295T28 317T38 348T53 381T73 411T99 433T132 442Q161 442 183 430T214 408T225 388Q227 382 228 382T236 389Q284 441 347 441H350Q398 441 422 400Q430 381 430 363Q430 333 417 315T391 292T366 288Q346 288 334 299T322 328Q322 376 378 392Q356 405 342 405Q286 405 239 331Q229 315 224 298T190 165Q156 25 151 16Q138 -11 108 -11Q95 -11 87 -5T76 7T74 17Q74 30 114 189T154 366Q154 405 128 405Q107 405 92 377T68 316T57 280Q55 278 41 278H27Q21 284 21 287Z"
            ></path>
          </g>
        </g>
      </g>
    </svg>
  </g>
  <g>
    <marker
      id="roger-GraphPipeline41417-`Arc_Parse_Export`.arrow-endArrowId"
      markerUnits="strokeWidth"
      markerWidth="13.93"
      markerHeight="11.37"
      viewBox="0 0 9.95 8.12"
      refX="2.36"
      refY="4.06"
      orient="auto-start-reverse"
    >
      <path
        d="M9.95 4.06 0 8.12 2.36 4.06 0 0 9.95 4.06z"
        fill="#141a29"
        fill-opacity="0.85"
      ></path>
    </marker>
    <line
      x1="487.1155331187639"
      y1="183.89750110473187"
      x2="501.45966308566176"
      y2="137.39454858731324"
      stroke="#141a29"
      stroke-opacity="0.85"
      stroke-width="2.5"
      marker-end="url(#roger-GraphPipeline41417-`Arc_Parse_Export`.arrow-endArrowId)"
    ></line>
    <title>`Arc_Parse_Export`.arrow</title>
  </g>
  <circle
    fill="#2957ad"
    fill-opacity="0.85"
    cx="509.28976890268086"
    cy="112.0097368311807"
    stroke="#0a142e"
    stroke-opacity="1"
    stroke-width="2"
    r="24"
  >
    <title>`Export`.dot</title>
  </circle>
  <g
    transform="rotate(0, 509.28976890312236, 112.00973683107969)translate(474.7937689031224, 102.39573683107969)"
  >
    <title>`Export`.text</title>
    <svg
      style="font-size: 22px"
      xmlns="http://www.w3.org/2000/svg"
      width="68.992"
      height="19.228"
      role="img"
      focusable="false"
      viewBox="0 -680 3136 874"
    >
      <g
        stroke="none"
        fill="#ffffff"
        stroke-width="0"
        transform="scale(1,-1)"
        fill-opacity="1"
      >
        <g data-mml-node="math">
          <g data-mml-node="mi">
            <path
              data-c="1D438"
              d="M492 213Q472 213 472 226Q472 230 477 250T482 285Q482 316 461 323T364 330H312Q311 328 277 192T243 52Q243 48 254 48T334 46Q428 46 458 48T518 61Q567 77 599 117T670 248Q680 270 683 272Q690 274 698 274Q718 274 718 261Q613 7 608 2Q605 0 322 0H133Q31 0 31 11Q31 13 34 25Q38 41 42 43T65 46Q92 46 125 49Q139 52 144 61Q146 66 215 342T285 622Q285 629 281 629Q273 632 228 634H197Q191 640 191 642T193 659Q197 676 203 680H757Q764 676 764 669Q764 664 751 557T737 447Q735 440 717 440H705Q698 445 698 453L701 476Q704 500 704 528Q704 558 697 578T678 609T643 625T596 632T532 634H485Q397 633 392 631Q388 629 386 622Q385 619 355 499T324 377Q347 376 372 376H398Q464 376 489 391T534 472Q538 488 540 490T557 493Q562 493 565 493T570 492T572 491T574 487T577 483L544 351Q511 218 508 216Q505 213 492 213Z"
            ></path>
          </g>
          <g data-mml-node="mi" transform="translate(764,0)">
            <path
              data-c="1D465"
              d="M52 289Q59 331 106 386T222 442Q257 442 286 424T329 379Q371 442 430 442Q467 442 494 420T522 361Q522 332 508 314T481 292T458 288Q439 288 427 299T415 328Q415 374 465 391Q454 404 425 404Q412 404 406 402Q368 386 350 336Q290 115 290 78Q290 50 306 38T341 26Q378 26 414 59T463 140Q466 150 469 151T485 153H489Q504 153 504 145Q504 144 502 134Q486 77 440 33T333 -11Q263 -11 227 52Q186 -10 133 -10H127Q78 -10 57 16T35 71Q35 103 54 123T99 143Q142 143 142 101Q142 81 130 66T107 46T94 41L91 40Q91 39 97 36T113 29T132 26Q168 26 194 71Q203 87 217 139T245 247T261 313Q266 340 266 352Q266 380 251 392T217 404Q177 404 142 372T93 290Q91 281 88 280T72 278H58Q52 284 52 289Z"
            ></path>
          </g>
          <g data-mml-node="mi" transform="translate(1336,0)">
            <path
              data-c="1D45D"
              d="M23 287Q24 290 25 295T30 317T40 348T55 381T75 411T101 433T134 442Q209 442 230 378L240 387Q302 442 358 442Q423 442 460 395T497 281Q497 173 421 82T249 -10Q227 -10 210 -4Q199 1 187 11T168 28L161 36Q160 35 139 -51T118 -138Q118 -144 126 -145T163 -148H188Q194 -155 194 -157T191 -175Q188 -187 185 -190T172 -194Q170 -194 161 -194T127 -193T65 -192Q-5 -192 -24 -194H-32Q-39 -187 -39 -183Q-37 -156 -26 -148H-6Q28 -147 33 -136Q36 -130 94 103T155 350Q156 355 156 364Q156 405 131 405Q109 405 94 377T71 316T59 280Q57 278 43 278H29Q23 284 23 287ZM178 102Q200 26 252 26Q282 26 310 49T356 107Q374 141 392 215T411 325V331Q411 405 350 405Q339 405 328 402T306 393T286 380T269 365T254 350T243 336T235 326L232 322Q232 321 229 308T218 264T204 212Q178 106 178 102Z"
            ></path>
          </g>
          <g data-mml-node="mi" transform="translate(1839,0)">
            <path
              data-c="1D45C"
              d="M201 -11Q126 -11 80 38T34 156Q34 221 64 279T146 380Q222 441 301 441Q333 441 341 440Q354 437 367 433T402 417T438 387T464 338T476 268Q476 161 390 75T201 -11ZM121 120Q121 70 147 48T206 26Q250 26 289 58T351 142Q360 163 374 216T388 308Q388 352 370 375Q346 405 306 405Q243 405 195 347Q158 303 140 230T121 120Z"
            ></path>
          </g>
          <g data-mml-node="mi" transform="translate(2324,0)">
            <path
              data-c="1D45F"
              d="M21 287Q22 290 23 295T28 317T38 348T53 381T73 411T99 433T132 442Q161 442 183 430T214 408T225 388Q227 382 228 382T236 389Q284 441 347 441H350Q398 441 422 400Q430 381 430 363Q430 333 417 315T391 292T366 288Q346 288 334 299T322 328Q322 376 378 392Q356 405 342 405Q286 405 239 331Q229 315 224 298T190 165Q156 25 151 16Q138 -11 108 -11Q95 -11 87 -5T76 7T74 17Q74 30 114 189T154 366Q154 405 128 405Q107 405 92 377T68 316T57 280Q55 278 41 278H27Q21 284 21 287Z"
            ></path>
          </g>
          <g data-mml-node="mi" transform="translate(2775,0)">
            <path
              data-c="1D461"
              d="M26 385Q19 392 19 395Q19 399 22 411T27 425Q29 430 36 430T87 431H140L159 511Q162 522 166 540T173 566T179 586T187 603T197 615T211 624T229 626Q247 625 254 615T261 596Q261 589 252 549T232 470L222 433Q222 431 272 431H323Q330 424 330 420Q330 398 317 385H210L174 240Q135 80 135 68Q135 26 162 26Q197 26 230 60T283 144Q285 150 288 151T303 153H307Q322 153 322 145Q322 142 319 133Q314 117 301 95T267 48T216 6T155 -11Q125 -11 98 4T59 56Q57 64 57 83V101L92 241Q127 382 128 383Q128 385 77 385H26Z"
            ></path>
          </g>
        </g>
      </g>
    </svg>
  </g>
  <g>
    <marker
      id="roger-GraphPipeline41417-`Arc_Input_Parse`.arrow-endArrowId"
      markerUnits="strokeWidth"
      markerWidth="13.93"
      markerHeight="11.37"
      viewBox="0 0 9.95 8.12"
      refX="2.36"
      refY="4.06"
      orient="auto-start-reverse"
    >
      <path
        d="M9.95 4.06 0 8.12 2.36 4.06 0 0 9.95 4.06z"
        fill="#141a29"
        fill-opacity="0.85"
      ></path>
    </marker>
    <line
      x1="445.5248579886455"
      y1="108.92953859986201"
      x2="474.2282098728044"
      y2="160.6678621804147"
      stroke="#141a29"
      stroke-opacity="0.85"
      stroke-width="2.5"
      marker-end="url(#roger-GraphPipeline41417-`Arc_Input_Parse`.arrow-endArrowId)"
    ></line>
    <title>`Arc_Input_Parse`.arrow</title>
  </g>
  <circle
    fill="#2957ad"
    fill-opacity="0.85"
    cx="487.1155331187639"
    cy="183.89750110473187"
    stroke="#0a142e"
    stroke-opacity="1"
    stroke-width="2"
    r="24"
  >
    <title>`Parse`.dot</title>
  </circle>
  <g
    transform="rotate(0, 487.1155331190614, 183.89750110479702)translate(457.7895331190614, 176.26350110479703)"
  >
    <title>`Parse`.text</title>
    <svg
      style="font-size: 22px"
      xmlns="http://www.w3.org/2000/svg"
      width="58.652"
      height="15.267999999999999"
      role="img"
      focusable="false"
      viewBox="0 -683 2666 694"
    >
      <g
        stroke="none"
        fill="#ffffff"
        stroke-width="0"
        transform="scale(1,-1)"
        fill-opacity="1"
      >
        <g data-mml-node="math">
          <g data-mml-node="mi">
            <path
              data-c="1D443"
              d="M287 628Q287 635 230 637Q206 637 199 638T192 648Q192 649 194 659Q200 679 203 681T397 683Q587 682 600 680Q664 669 707 631T751 530Q751 453 685 389Q616 321 507 303Q500 302 402 301H307L277 182Q247 66 247 59Q247 55 248 54T255 50T272 48T305 46H336Q342 37 342 35Q342 19 335 5Q330 0 319 0Q316 0 282 1T182 2Q120 2 87 2T51 1Q33 1 33 11Q33 13 36 25Q40 41 44 43T67 46Q94 46 127 49Q141 52 146 61Q149 65 218 339T287 628ZM645 554Q645 567 643 575T634 597T609 619T560 635Q553 636 480 637Q463 637 445 637T416 636T404 636Q391 635 386 627Q384 621 367 550T332 412T314 344Q314 342 395 342H407H430Q542 342 590 392Q617 419 631 471T645 554Z"
            ></path>
          </g>
          <g data-mml-node="mi" transform="translate(751,0)">
            <path
              data-c="1D44E"
              d="M33 157Q33 258 109 349T280 441Q331 441 370 392Q386 422 416 422Q429 422 439 414T449 394Q449 381 412 234T374 68Q374 43 381 35T402 26Q411 27 422 35Q443 55 463 131Q469 151 473 152Q475 153 483 153H487Q506 153 506 144Q506 138 501 117T481 63T449 13Q436 0 417 -8Q409 -10 393 -10Q359 -10 336 5T306 36L300 51Q299 52 296 50Q294 48 292 46Q233 -10 172 -10Q117 -10 75 30T33 157ZM351 328Q351 334 346 350T323 385T277 405Q242 405 210 374T160 293Q131 214 119 129Q119 126 119 118T118 106Q118 61 136 44T179 26Q217 26 254 59T298 110Q300 114 325 217T351 328Z"
            ></path>
          </g>
          <g data-mml-node="mi" transform="translate(1280,0)">
            <path
              data-c="1D45F"
              d="M21 287Q22 290 23 295T28 317T38 348T53 381T73 411T99 433T132 442Q161 442 183 430T214 408T225 388Q227 382 228 382T236 389Q284 441 347 441H350Q398 441 422 400Q430 381 430 363Q430 333 417 315T391 292T366 288Q346 288 334 299T322 328Q322 376 378 392Q356 405 342 405Q286 405 239 331Q229 315 224 298T190 165Q156 25 151 16Q138 -11 108 -11Q95 -11 87 -5T76 7T74 17Q74 30 114 189T154 366Q154 405 128 405Q107 405 92 377T68 316T57 280Q55 278 41 278H27Q21 284 21 287Z"
            ></path>
          </g>
          <g data-mml-node="mi" transform="translate(1731,0)">
            <path
              data-c="1D460"
              d="M131 289Q131 321 147 354T203 415T300 442Q362 442 390 415T419 355Q419 323 402 308T364 292Q351 292 340 300T328 326Q328 342 337 354T354 372T367 378Q368 378 368 379Q368 382 361 388T336 399T297 405Q249 405 227 379T204 326Q204 301 223 291T278 274T330 259Q396 230 396 163Q396 135 385 107T352 51T289 7T195 -10Q118 -10 86 19T53 87Q53 126 74 143T118 160Q133 160 146 151T160 120Q160 94 142 76T111 58Q109 57 108 57T107 55Q108 52 115 47T146 34T201 27Q237 27 263 38T301 66T318 97T323 122Q323 150 302 164T254 181T195 196T148 231Q131 256 131 289Z"
            ></path>
          </g>
          <g data-mml-node="mi" transform="translate(2200,0)">
            <path
              data-c="1D452"
              d="M39 168Q39 225 58 272T107 350T174 402T244 433T307 442H310Q355 442 388 420T421 355Q421 265 310 237Q261 224 176 223Q139 223 138 221Q138 219 132 186T125 128Q125 81 146 54T209 26T302 45T394 111Q403 121 406 121Q410 121 419 112T429 98T420 82T390 55T344 24T281 -1T205 -11Q126 -11 83 42T39 168ZM373 353Q367 405 305 405Q272 405 244 391T199 357T170 316T154 280T149 261Q149 260 169 260Q282 260 327 284T373 353Z"
            ></path>
          </g>
        </g>
      </g>
    </svg>
  </g>
  <circle
    fill="#2957ad"
    fill-opacity="0.85"
    cx="445.5248579886455"
    cy="108.92953859986201"
    stroke="#0a142e"
    stroke-opacity="1"
    stroke-width="2"
    r="24"
  >
    <title>`Input`.dot</title>
  </circle>
  <g
    transform="rotate(0, 445.52485798940074, 108.92953860015544)translate(417.58485798940075, 99.28253860015543)"
  >
    <title>`Input`.text</title>
    <svg
      style="font-size: 22px"
      xmlns="http://www.w3.org/2000/svg"
      width="55.88"
      height="19.294"
      role="img"
      focusable="false"
      viewBox="0 -683 2540 877"
    >
      <g
        stroke="none"
        fill="#ffffff"
        stroke-width="0"
        transform="scale(1,-1)"
        fill-opacity="1"
      >
        <g data-mml-node="math">
          <g data-mml-node="mi">
            <path
              data-c="1D43C"
              d="M43 1Q26 1 26 10Q26 12 29 24Q34 43 39 45Q42 46 54 46H60Q120 46 136 53Q137 53 138 54Q143 56 149 77T198 273Q210 318 216 344Q286 624 286 626Q284 630 284 631Q274 637 213 637H193Q184 643 189 662Q193 677 195 680T209 683H213Q285 681 359 681Q481 681 487 683H497Q504 676 504 672T501 655T494 639Q491 637 471 637Q440 637 407 634Q393 631 388 623Q381 609 337 432Q326 385 315 341Q245 65 245 59Q245 52 255 50T307 46H339Q345 38 345 37T342 19Q338 6 332 0H316Q279 2 179 2Q143 2 113 2T65 2T43 1Z"
            ></path>
          </g>
          <g data-mml-node="mi" transform="translate(504,0)">
            <path
              data-c="1D45B"
              d="M21 287Q22 293 24 303T36 341T56 388T89 425T135 442Q171 442 195 424T225 390T231 369Q231 367 232 367L243 378Q304 442 382 442Q436 442 469 415T503 336T465 179T427 52Q427 26 444 26Q450 26 453 27Q482 32 505 65T540 145Q542 153 560 153Q580 153 580 145Q580 144 576 130Q568 101 554 73T508 17T439 -10Q392 -10 371 17T350 73Q350 92 386 193T423 345Q423 404 379 404H374Q288 404 229 303L222 291L189 157Q156 26 151 16Q138 -11 108 -11Q95 -11 87 -5T76 7T74 17Q74 30 112 180T152 343Q153 348 153 366Q153 405 129 405Q91 405 66 305Q60 285 60 284Q58 278 41 278H27Q21 284 21 287Z"
            ></path>
          </g>
          <g data-mml-node="mi" transform="translate(1104,0)">
            <path
              data-c="1D45D"
              d="M23 287Q24 290 25 295T30 317T40 348T55 381T75 411T101 433T134 442Q209 442 230 378L240 387Q302 442 358 442Q423 442 460 395T497 281Q497 173 421 82T249 -10Q227 -10 210 -4Q199 1 187 11T168 28L161 36Q160 35 139 -51T118 -138Q118 -144 126 -145T163 -148H188Q194 -155 194 -157T191 -175Q188 -187 185 -190T172 -194Q170 -194 161 -194T127 -193T65 -192Q-5 -192 -24 -194H-32Q-39 -187 -39 -183Q-37 -156 -26 -148H-6Q28 -147 33 -136Q36 -130 94 103T155 350Q156 355 156 364Q156 405 131 405Q109 405 94 377T71 316T59 280Q57 278 43 278H29Q23 284 23 287ZM178 102Q200 26 252 26Q282 26 310 49T356 107Q374 141 392 215T411 325V331Q411 405 350 405Q339 405 328 402T306 393T286 380T269 365T254 350T243 336T235 326L232 322Q232 321 229 308T218 264T204 212Q178 106 178 102Z"
            ></path>
          </g>
          <g data-mml-node="mi" transform="translate(1607,0)">
            <path
              data-c="1D462"
              d="M21 287Q21 295 30 318T55 370T99 420T158 442Q204 442 227 417T250 358Q250 340 216 246T182 105Q182 62 196 45T238 27T291 44T328 78L339 95Q341 99 377 247Q407 367 413 387T427 416Q444 431 463 431Q480 431 488 421T496 402L420 84Q419 79 419 68Q419 43 426 35T447 26Q469 29 482 57T512 145Q514 153 532 153Q551 153 551 144Q550 139 549 130T540 98T523 55T498 17T462 -8Q454 -10 438 -10Q372 -10 347 46Q345 45 336 36T318 21T296 6T267 -6T233 -11Q189 -11 155 7Q103 38 103 113Q103 170 138 262T173 379Q173 380 173 381Q173 390 173 393T169 400T158 404H154Q131 404 112 385T82 344T65 302T57 280Q55 278 41 278H27Q21 284 21 287Z"
            ></path>
          </g>
          <g data-mml-node="mi" transform="translate(2179,0)">
            <path
              data-c="1D461"
              d="M26 385Q19 392 19 395Q19 399 22 411T27 425Q29 430 36 430T87 431H140L159 511Q162 522 166 540T173 566T179 586T187 603T197 615T211 624T229 626Q247 625 254 615T261 596Q261 589 252 549T232 470L222 433Q222 431 272 431H323Q330 424 330 420Q330 398 317 385H210L174 240Q135 80 135 68Q135 26 162 26Q197 26 230 60T283 144Q285 150 288 151T303 153H307Q322 153 322 145Q322 142 319 133Q314 117 301 95T267 48T216 6T155 -11Q125 -11 98 4T59 56Q57 64 57 83V101L92 241Q127 382 128 383Q128 385 77 385H26Z"
            ></path>
          </g>
        </g>
      </g>
    </svg>
  </g>
</svg>
